<svg width="1200" height="300" viewBox="0 0 1200 300" fill="none" xmlns="http://www.w3.org/2000/svg">
  <title>Vila Girassol Residencial</title>
  <defs>
    <linearGradient id="bg" x1="0" y1="0" x2="1200" y2="300" gradientUnits="userSpaceOnUse">
      <stop stop-color="#F6F3EF"/>
      <stop offset="1" stop-color="#ECE9E5"/>
    </linearGradient>
  </defs>

  <rect width="1200" height="300" rx="24" fill="url(#bg)"/>

  <g opacity="0.22" stroke="#D8D1C9" stroke-width="18" stroke-linecap="round">
    <path d="M-40 28C86 96 167 96 294 28C420 -40 503 -40 632 28C758 96 838 96 965 28C1042 -12 1116 -12 1240 28"/>
    <path d="M-24 118C112 186 194 186 330 118C448 58 540 58 662 118C798 186 880 186 1014 118C1096 76 1156 74 1238 118"/>
    <path d="M-30 210C106 278 198 278 332 210C456 148 552 148 678 210C810 278 894 278 1030 210C1112 168 1182 168 1264 210"/>
    <path d="M72 -30C120 20 154 60 174 116C196 174 228 214 272 258"/>
    <path d="M1040 -26C984 22 950 66 926 122C898 188 868 230 816 276"/>
  </g>

  <g transform="translate(56 16)">
    <rect x="118" y="-8" width="96" height="284" fill="#F5B200"/>

    <g transform="translate(166 134)">
      <ellipse rx="20" ry="82" fill="#F7B500"/>
      <ellipse rx="20" ry="82" transform="rotate(15)" fill="#F7B500"/>
      <ellipse rx="20" ry="82" transform="rotate(30)" fill="#F7B500"/>
      <ellipse rx="20" ry="82" transform="rotate(45)" fill="#F7B500"/>
      <ellipse rx="20" ry="82" transform="rotate(60)" fill="#F7B500"/>
      <ellipse rx="20" ry="82" transform="rotate(75)" fill="#F7B500"/>
      <ellipse rx="20" ry="82" transform="rotate(90)" fill="#F7B500"/>
      <ellipse rx="20" ry="82" transform="rotate(105)" fill="#F7B500"/>
      <ellipse rx="20" ry="82" transform="rotate(120)" fill="#F7B500"/>
      <ellipse rx="20" ry="82" transform="rotate(135)" fill="#F7B500"/>
      <ellipse rx="20" ry="82" transform="rotate(150)" fill="#F7B500"/>
      <ellipse rx="20" ry="82" transform="rotate(165)" fill="#F7B500"/>
      <ellipse rx="20" ry="82" transform="rotate(180)" fill="#F7B500"/>
      <ellipse rx="20" ry="82" transform="rotate(195)" fill="#F7B500"/>
      <ellipse rx="20" ry="82" transform="rotate(210)" fill="#F7B500"/>
      <ellipse rx="20" ry="82" transform="rotate(225)" fill="#F7B500"/>
      <ellipse rx="20" ry="82" transform="rotate(240)" fill="#F7B500"/>
      <ellipse rx="20" ry="82" transform="rotate(255)" fill="#F7B500"/>
      <ellipse rx="20" ry="82" transform="rotate(270)" fill="#F7B500"/>
      <ellipse rx="20" ry="82" transform="rotate(285)" fill="#F7B500"/>
      <ellipse rx="20" ry="82" transform="rotate(300)" fill="#F7B500"/>
      <ellipse rx="20" ry="82" transform="rotate(315)" fill="#F7B500"/>
      <ellipse rx="20" ry="82" transform="rotate(330)" fill="#F7B500"/>
      <ellipse rx="20" ry="82" transform="rotate(345)" fill="#F7B500"/>

      <ellipse rx="10" ry="46" fill="none" stroke="#FFF8E8" stroke-width="5"/>
      <ellipse rx="10" ry="46" transform="rotate(22.5)" fill="none" stroke="#FFF8E8" stroke-width="5"/>
      <ellipse rx="10" ry="46" transform="rotate(45)" fill="none" stroke="#FFF8E8" stroke-width="5"/>
      <ellipse rx="10" ry="46" transform="rotate(67.5)" fill="none" stroke="#FFF8E8" stroke-width="5"/>
      <ellipse rx="10" ry="46" transform="rotate(90)" fill="none" stroke="#FFF8E8" stroke-width="5"/>
      <ellipse rx="10" ry="46" transform="rotate(112.5)" fill="none" stroke="#FFF8E8" stroke-width="5"/>
      <ellipse rx="10" ry="46" transform="rotate(135)" fill="none" stroke="#FFF8E8" stroke-width="5"/>
      <ellipse rx="10" ry="46" transform="rotate(157.5)" fill="none" stroke="#FFF8E8" stroke-width="5"/>

      <circle r="42" fill="#9B622C"/>
      <circle r="56" fill="none" stroke="#FFF8E8" stroke-width="6"/>
    </g>
  </g>

  <g fill="#52616D">
    <text x="412" y="96" font-family="Georgia, 'Times New Roman', serif" font-size="56" letter-spacing="2">VILA</text>
    <text x="786" y="210" text-anchor="middle" font-family="Georgia, 'Times New Roman', serif" font-size="154" letter-spacing="5">
      GIRASSOL
    </text>
    <text
      x="786"
      y="266"
      text-anchor="middle"
      font-family="Arial, Helvetica, sans-serif"
      font-size="28"
      letter-spacing="11"
    >
      RESIDENCIAL
    </text>
  </g>
</svg>
